<?xml version="1.0" encoding="utf-8"?>
<!-- Generator: Adobe Illustrator 14.0.0, SVG Export Plug-In . SVG Version: 6.00 Build 43363)  -->
<!DOCTYPE svg PUBLIC "-//W3C//DTD SVG 1.1//EN" "http://www.w3.org/Graphics/SVG/1.1/DTD/svg11.dtd">
<svg version="1.1" xmlns="http://www.w3.org/2000/svg" xmlns:xlink="http://www.w3.org/1999/xlink" x="0px" y="0px"
	 width="215.333px" height="314.667px" viewBox="0 0 215.333 314.667" enable-background="new 0 0 215.333 314.667"
	 xml:space="preserve">
<g id="Layer_1" display="none">
	
		<image display="inline" overflow="visible" width="338" height="338" xlink:href="beertank.jpg"  transform="matrix(1 0 0 1 -32.3882 -12.728)">
	</image>
</g>
<g id="Layer_5">
	<path fill="#FFFFFF" d="M61.538,89.75l-7.247,0.927l-1.662-5.327c0,0,0.877-0.481,3.533-0.806c2.657-0.324,5.091-0.057,5.091-0.057
		L61.538,89.75z"/>
	<path d="M8.413,98.044l5.556-6.667L5.81,77.011c0,0-0.135-1.53,10.29-9.544c10.579-8.131,12.465-7.932,12.465-7.932l12.271,9.782
		c0,0,13.815-8.395,15.859-5.784c2.032,2.596-10.16,13.26-10.16,13.26s3.991,4.644,5.485,7.065c1.494,2.421,3.188,6.745,3.188,6.745
		s2.78-0.626,6.421-0.741c3.641-0.114,6.822,0.447,6.822,0.447s4.8,5.022,5.104,7.173c0.304,2.151,3.742,0.976,3.742,0.976
		l2.263,1.503c0,0,18.623,42.761,19.529,44.835c0.907,2.077,0.166,5.002-2.384,6.066C94.097,152,76.25,190.167,76.25,190.167
		l-28.498-38.361l-11.088-14.672l7.145-0.661c0,0-2.692-2.469-5.6-4.555c-2.646-1.9-7.256-3.91-7.256-3.91s3.815-1.311,6.802-2.072
		c4.168-1.063,6.947-1.044,6.947-1.044l-2.863-4.058c0,0-2.814,1.427-4.477,0.716c-1.664-0.711-3.054-3.558-3.641-3.928
		c-0.586-0.37-1.295-0.434-1.542-1.016s0.383-1.37,0.383-1.37s-1.107,0.321-1.739-0.371s-0.486-2.852-0.486-2.852
		s-2.881,0.86-3.243,0.047c-0.361-0.812-1.416-8.56-2.642-9.086s-3.702-1.451-3.702-1.451l-1.223-2.542l-7.098,5.363
		c0,0-6.729,5.352-8.758,2.925C1.642,104.842,8.413,98.044,8.413,98.044z"/>
	<path fill="#FFFFFF" d="M35.524,110.933l4.4,4.818c0,0,9.365-6.28,15.549-11.947c6.184-5.667,10.319-12.812,10.319-12.812
		l-4.54-6.504c0,0,0.193,1.454-0.954,3.348c-1.973,3.254-4.152,5.916-9.955,11.269C47.401,101.818,35.524,110.933,35.524,110.933z"
		/>
</g>
<g id="Layer_2">
	<path fill="#488FCD" d="M160.061,5.606c0-1.281-2.016-2.32-4.503-2.32s-4.503,1.039-4.503,2.32c0,0.906,1.018,1.683,2.486,2.064
		v2.179c0,0,1.068,0.209,2.181,0.589c0.9,0.308,1.77,0.961,1.77,0.961V7.694C159.007,7.32,160.061,6.529,160.061,5.606z"/>
	<path fill="#666666" d="M164.769,266.271v-4.399h-3.757v4.386c-1.109,0.29-1.865,0.826-1.865,1.447
		c0,0.927,1.664,1.678,3.716,1.678s3.716-0.751,3.716-1.678C166.579,267.093,165.848,266.564,164.769,266.271z"/>
	<path fill="#666666" d="M89.469,266.271v-4.399h-3.757v4.386c-1.109,0.29-1.865,0.826-1.865,1.447c0,0.927,1.664,1.678,3.716,1.678
		s3.716-0.751,3.716-1.678C91.278,267.093,90.548,266.564,89.469,266.271z"/>
	<polygon fill="#999999" points="172.574,274.716 166.667,258 166.667,158.667 159.333,158.667 159.333,253 91.333,253 
		91.333,158.667 84,158.667 84,259.04 80,266.333 82,274 88.076,264.333 91.333,264.333 91.333,256.333 159.333,256.333 
		159.333,264.333 165.097,264.333 171.333,280.667 	"/>
	<rect x="81.667" y="288.667" fill="#999999" width="91" height="5"/>
	<rect x="81.667" y="289.57" fill="#CCCCCC" width="90" height="1.597"/>
	<rect x="91.953" y="253.422" fill="#B3B3B3" width="66.85" height="0.751"/>
	<path fill="#999999" d="M81.25,306.663v-5.169h-4.413v5.153c-1.304,0.341-2.192,0.971-2.192,1.7c0,1.089,1.955,1.972,4.366,1.972
		c2.411,0,4.366-0.883,4.366-1.972C83.377,307.629,82.519,307.007,81.25,306.663z"/>
	<path fill="#999999" d="M176.456,306.663v-5.169h-4.414v5.153c-1.304,0.341-2.191,0.971-2.191,1.7c0,1.089,1.955,1.972,4.366,1.972
		s4.366-0.883,4.366-1.972C178.583,307.629,177.724,307.007,176.456,306.663z"/>
	<path fill="#858E8D" d="M106.042,22.042l-8.875,0.125c0,0-1.875-0.531-1.875-1.531c0-1.406,2.125-1.594,2.125-1.594v-3.5
		c0,0-2.875-0.125-2.875-2c0-2.281,15.625-6.375,32.625-6.375s27.747,2.784,28.79,3.196s1.96,0.929,1.835,1.804
		s-1.25,1.25-1.25,1.25l-0.167,2.958l5.938-0.208v4.104l-6.72,0.3c0,0,2.109,0.747,1.024,1.763c-0.898,0.841-7.7-0.167-7.7-0.167
		l-3.5-4.25l8.219-1.188l0.072-3.137l-19.041-2.426l-0.063,4.344l-14.188-0.094v-4.5L100.554,14.7l0.113,3.841l6.5-2.125
		L106.042,22.042z"/>
	<rect x="186.355" y="154.803" fill="#858E8D" width="14.237" height="1.85"/>
	<path fill="#B4B9BB" d="M160.708,16.229c0,0,27.477-0.86,31.702-0.883s6.117,1.316,6.233,3.971s-0.109,35.987-0.109,35.987
		l1.059,175.717c0,0-0.709,0.564-2.384,0.589s-2.269-0.523-2.269-0.523s-1.319-197.898-1.435-205.157
		c-0.116-7.342,0.547-6.426-6.729-6.358c-9.695,0.09-26.069,0.774-26.069,0.774V16.229z"/>
	<path fill="#B4B9BB" d="M197.136,133.019c0,0,4.861,0.027,6.752,0.027c1.656,0,1.823-1.044,1.775-2.733
		c-0.037-1.298,0-3.189,0-3.189h2.633c0,0,0,1.191,0,4.338c0,2.33-1.637,3.85-3.602,3.813c-2.726-0.051-7.596-0.105-7.596-0.105
		L197.136,133.019z"/>
	<rect x="205.622" y="123.892" fill="#8C959D" width="2.675" height="3.856"/>
	<circle fill="#8C959D" cx="206.994" cy="121.743" r="4.004"/>
	<circle fill="#E6E6E6" cx="206.994" cy="121.746" r="3.255"/>
</g>
<g id="Layer_3">
	<path fill="#B3B3B3" d="M189.333,64.333c-2-5-5-4-5-4s1.667-11-7-18.333c-0.794-0.672-1.657-1.29-2.566-1.86
		c-0.155-3.187-0.945-11.319-4.972-11.391c-4.593-0.082-4.163,6.386-4.061,7.461C158.651,34.068,152,33.667,152,33.667L152.333,18
		c0,0-9.478-5-24.333-5c-21.667,0-25.333,5.333-25.333,5.333v12c0,0-7.022,1.529-14.146,4.582c0.114-1.645,0.191-7.242-4.084-7.166
		C79.962,27.83,79.484,37.863,79.433,40c-0.145,0.11-0.292,0.22-0.433,0.333c-8.333,6.667-9.667,16-9.667,16s-3.333,2.333-5,6
		S65,155.667,65,155.667s3.915,6.7,9.667,16.456v132.211H84V187.9c15.257,25.694,34.488,57.579,36.667,58.767
		c3.667,2,9,2.667,12.333,0c2.003-1.603,21.457-33.532,36.667-58.766v116.433H179V172.375c5.382-8.973,9-15.042,9-15.042
		S191.333,69.333,189.333,64.333z M169.653,30.53c1.381,0,2.502,1.121,2.502,2.502c0,1.382-1.121,2.503-2.502,2.503
		c-1.383,0-2.504-1.121-2.504-2.503C167.149,31.65,168.27,30.53,169.653,30.53z M84.58,29.53c1.382,0,2.503,1.121,2.503,2.502
		c0,1.382-1.121,2.503-2.503,2.503c-1.382,0-2.502-1.121-2.502-2.503C82.078,30.65,83.198,29.53,84.58,29.53z"/>
</g>
<g id="Layer_4">
	<path fill="#FFFFFF" d="M107.833,29.417l-0.167,5.5c0,0-10.917-0.667-18.917,5.583s-7.167,11.667-7.167,11.667
		S76.417,54,76.417,56.5s-0.083,59.833-0.083,59.833l0,38L85,159c0,0,11.834,3.99,42.834,3.99s42.333-3.073,42.333-3.073
		s-2.145-28.964,0.417-58.25c1.669-19.08,3.333-44.75,3.333-44.75s-2.833-1.5-3.083-2.333s0.499-6.25-1.167-9.167
		s-13.749-9.333-18.416-10s-5.437-1.047-5.437-1.047l-0.147-4.703L107.833,29.417z"/>
	<polygon fill="#999999" points="82.565,184.729 80.614,180.292 80.614,302.54 82.565,302.54 	"/>
	<polygon fill="#CCCCCC" points="78,302.667 76.25,302.667 76.25,173.448 78,176.542 	"/>
	<path opacity="0.75" fill="#808080" d="M169.583,169.667v18.25l-30,48c0,0,12.25-21.25,11-26s-6.75,5.5-6.75,5.5
		s4.667-15.417,11.5-27.5C163.099,174.185,169.583,169.667,169.583,169.667z"/>
	<path opacity="0.75" fill="#808080" d="M87.667,173.5c0,0,10.833,14.251,16,25.001s5.75,15.416,5.75,15.416
		s-19.754-31.347-20.583-32.499c-1.5-2.084-2.75-1.251-2.884,0.149c-0.449,4.682,9.717,20.933,9.717,20.933l7.667,16.5
		l-18.919-31.663L84.236,167L87.667,173.5z"/>
	<path opacity="0.75" fill="#485654" d="M170.167,159.917c0,0-8.955,9.104-16.372,21.521s-13.533,29.667-13.533,29.667
		s-4.565-9.527-12.174-16.739s-15.127-10.344-15.127-10.344l14.333-21.084c0,0,8.502,0.208,19.583-0.25
		C160.044,162.143,170.167,159.917,170.167,159.917z"/>
	<path opacity="0.7" fill="#7D8589" d="M85.667,51.667c0,0,24.333-3.667,40.333-3.333s34.667,3.333,34.667,3.333s-12.334-10-35-10
		C103,41.667,85.667,51.667,85.667,51.667z"/>
	<path opacity="0.7" fill="#B4B9BB" d="M144.67,162.647c0,0-9.962,0.928-32.914-0.058C92.095,161.746,85,159,85,159
		s-2.046-34.839-1-53.667c1.667-30,10.03-48.899,10.03-48.899s9.048-0.935,21.704-1.289c14.827-0.416,23.2,0.418,23.2,0.418
		s3.841,26.1,4.399,48.77C144.188,139.025,144.67,162.647,144.67,162.647z"/>
	<path opacity="0.7" fill="#7D8589" d="M87.667,57c0,0,20-2,36.333-2s36.667,2.667,36.667,2.667S147.624,51,124.333,51
		C101.044,51,87.667,57,87.667,57z"/>
	<path opacity="0.7" fill="#7D8589" d="M107.736,32.64c0,0,4.421,2.276,18.754,2.276s19.268-2.342,19.268-2.342l0.057,1.796
		c0,0-5.324,1.629-19.324,1.629s-18.823-1.083-18.823-1.083L107.736,32.64z"/>
	<path opacity="0.7" fill="#FFFFFF" d="M414.667,188.667"/>
	<path opacity="0.7" fill="#7D8589" d="M169.755,115.577c1.593-28.105,4.161-58.661,4.161-58.661L175.333,156l-5.167,3.917
		C170.167,159.917,168.254,142.056,169.755,115.577z"/>
	<path fill="#D3D1D3" d="M127.667,201.667c-1.75,0-3.653,1.036-3.659,2.577s1.659,2.423,1.659,2.423v5c0,0,0.891-0.703,2.172-0.703
		s2,0.672,2,0.672l0.011-4.908c0,0,1.629-0.795,1.629-2.436S129.417,201.667,127.667,201.667z"/>
	<ellipse fill="#1A1A1A" cx="127.752" cy="211.737" rx="2.086" ry="1.508"/>
	<path fill="#D3D1D3" d="M129.828,209.213l6.417-0.078c0,0,1.672,0.17,1.672,1.156c0,0.984-1.691,0.93-1.691,0.93l-6.4-0.627
		L129.828,209.213z"/>
</g>
</svg>
