<?xml version="1.0" encoding="utf-8"?>
<!-- Generator: Adobe Illustrator 14.0.0, SVG Export Plug-In . SVG Version: 6.00 Build 43363)  -->
<!DOCTYPE svg PUBLIC "-//W3C//DTD SVG 1.1//EN" "http://www.w3.org/Graphics/SVG/1.1/DTD/svg11.dtd">
<svg version="1.1" xmlns="http://www.w3.org/2000/svg" xmlns:xlink="http://www.w3.org/1999/xlink" x="0px" y="0px" width="1280px"
	 height="1280px" viewBox="0 0 1280 1280" enable-background="new 0 0 1280 1280" xml:space="preserve">
<g id="Layer_1" display="none">
	
		<image display="inline" overflow="visible" width="1289" height="1285" xlink:href="A5EB1578.jpg"  transform="matrix(0.36 0 0 0.36 408 409)">
	</image>
</g>
<g id="Layer_5">
	<linearGradient id="SVGID_1_" gradientUnits="userSpaceOnUse" x1="649.0781" y1="412.9292" x2="649.0781" y2="848.9438">
		<stop  offset="0" style="stop-color:#456FB6"/>
		<stop  offset="1" style="stop-color:#456FB6"/>
	</linearGradient>
	<path fill="url(#SVGID_1_)" d="M867.085,831.503c0,9.633-7.808,17.44-17.44,17.44H448.511c-9.631,0-17.44-7.808-17.44-17.44V430.37
		c0-9.632,7.809-17.44,17.44-17.44h401.134c9.633,0,17.44,7.808,17.44,17.44V831.503z"/>
</g>
<g id="Silhouette">
	<path fill="#FFFFFF" d="M478.204,629.486l26.577-7.742l-2.29-21.017c0,0-3.772-0.346-13.491,2.544
		c-9.718,2.892-17.768,7.504-17.768,7.504L478.204,629.486z"/>
	<path d="M675.291,576.078l-29.383-14.751l6.605-62.243c0,0-1.848-5.518-50.181-17.581c-49.043-12.24-55.296-8.692-55.296-8.692
		l-27.824,52.54c0,0-60.687-8.258-63.833,3.902c-3.13,12.092,55.349,30.688,55.349,30.688s-6.836,22.169-8.363,32.839
		c-1.526,10.67-0.87,28.251-0.87,28.251s-10.604,2.03-23.425,7.14c-12.82,5.11-23.019,11.876-23.019,11.876
		s-9.073,24.703-6.875,32.634c2.197,7.93-11.521,9.052-11.521,9.052l-5.587,8.645c0,0,0.01,132.502,0,141.085
		s6.99,17.625,17.458,17.461c10.781,0,154.771,0,154.771,0l16.688-70.789l16.318-23.543l-25.819,8.516
		c0,0,5.62-12.649,12.561-24.293c6.32-10.604,19.292-24.56,19.292-24.56s-15.234,1.219-26.762,3.094
		c-16.086,2.616-25.71,6.884-25.71,6.884l3.807-18.426c0,0,11.934,0.696,16.636-4.29c4.702-4.985,5.222-16.977,6.702-19.148
		c1.479-2.171,3.843-3.467,3.819-5.861s-3.4-4.18-3.4-4.18s4.328-0.56,5.478-3.92c1.15-3.361-2.628-10.64-2.628-10.64
		s11.308-1.372,11.333-4.742c0.027-3.369-8.032-31.875-4.569-35.557c3.463-3.681,10.662-10.639,10.662-10.639l0.402-10.678
		l32.767,7.89c0,0,31.471,8.41,34.846-3.092C709.096,589.445,675.291,576.078,675.291,576.078z"/>
	<path fill="#FFFFFF" d="M600.606,663.707l-7.995,23.389c0,0-42.03-7.641-72.083-17.969c-30.053-10.329-55.226-28.889-55.226-28.889
		l5.93-29.462c0,0,1.526,5.341,8.378,10.182c11.773,8.318,23.372,14.266,51.624,24.08
		C545.565,650.017,600.606,663.707,600.606,663.707z"/>
	<path d="M431.052,787.257"/>
</g>
<g id="Beer">
	<path fill="#DE9127" d="M751.823,792.362c0,0,14.895,5.152,39.906,1.563c25.013-3.589,39.223-12.917,39.223-12.917l-18.626-134.041
		l-79.296,11.262L751.823,792.362z"/>
	<path fill="#FFD482" d="M733.351,660.511c0,0-2.602-5.59,1.327-6.521c3.929-0.931,4.185-3.208,6.763-3.73
		c2.577-0.521,2.515,0.661,6.891-1.569c4.375-2.231,6.299-0.74,6.299-0.74s-0.04,0.916,2.854-0.996
		c2.894-1.91,8.078,1.306,8.078,1.306s-0.576-1.895,3.377-4.128c3.955-2.233,7.217-1.537,7.217-1.537s-0.832-0.655,1.822-1.977
		c2.65-1.318,5.86,0.943,5.86,0.943s2.053-2.95,3.967-2.884c1.915,0.068,3.753,1.971,3.753,1.971s2.424-2.418,4.34-2.35
		c1.913,0.064,2.538,1.43,2.538,1.43s2.036-1.262,3.962-0.811s2.97,2.854,2.97,2.854s3.133-0.599,3.624-0.192
		c4.397,3.644,3.273,5.11,3.706,8.075c0,0-4.77,7.52-7.217,8.131c-2.444,0.611-5.112,0.77-5.112,0.77s-1.372,1.104-3.448,1.195
		s-3.167-0.744-7.938,0.184c-4.771,0.929-10.717,1.717-15.323,3.754c-4.606,2.04-8.926,4.039-12.156,4.182
		c-3.23,0.144-5.403,0.252-8.549,0.273c-3.143,0.024-4.282-0.26-6.094,0.018c-1.809,0.28-4.459,3.692-6.914,1.837
		c-2.453-1.854-3.28-8.121-3.28-8.121L733.351,660.511z"/>
</g>
<g id="Beer_Mug">
	<path opacity="0.5" fill="#9BDAED" stroke="#0099CC" stroke-width="2" d="M768.209,620.363
		c-36.701,5.667-44.967,18.676-44.967,18.676l2.89,19.988c0.347,2.464-4.588,4.919-6.548,5.201l-18.389,2.658
		c-12.384,1.79-20.927,13.581-19.476,23.626l13.506,93.439c1.452,10.045,12.666,16.737,25.05,14.947l17.728-2.563
		c3.754-0.573,7.829-0.809,8.389,2.87l2.301,15.919c0,0,24.046,4.783,46.755,1.501s45.56-14.843,45.56-14.843l-25.616-177.238
		C815.391,624.546,804.906,614.697,768.209,620.363z M729.171,680.062c0.308,2.079,11.147,74.978,14.208,96.168
		c0.542,3.809-4.722,6.088-8.843,6.684c-4.121,0.597-9.855,1.425-9.855,1.425c-10.046,1.452-17.152-3.05-18.604-13.095
		l-11.04-76.389c-1.452-10.045,3.951-15.192,13.996-16.645c0,0,6.801-0.983,10.637-1.538
		C723.506,676.117,728.725,677.036,729.171,680.062z"/>
</g>
</svg>
